<svg width="1920" height="320" viewBox="0 0 1920 320" fill="none" xmlns="http://www.w3.org/2000/svg">
<path d="M-43 224L22.4333 229.3C87.8667 235 218.733 245 349.6 218.7C480.467 192 611.333 128 742.2 133.3C873.067 139 1003.93 213 1134.8 240C1265.67 267 1396.53 245 1527.4 240C1658.27 235 1789.13 245 1854.57 250.7L1920 256V0H1854.57C1789.13 0 1658.27 0 1527.4 0C1396.53 0 1265.67 0 1134.8 0C1003.93 0 873.067 0 742.2 0C611.333 0 480.467 0 349.6 0C218.733 0 87.8667 0 22.4333 0H-43V224Z" fill="#1D2023"/>
</svg>
